<?xml version="1.0" encoding="UTF-8" standalone="no"?>
<!-- Created with Inkscape (http://www.inkscape.org/) -->

<svg
   width="541.86664mm"
   height="541.86664mm"
   viewBox="0 0 541.86664 541.86664"
   version="1.1"
   id="svg1"
   xml:space="preserve"
   inkscape:version="1.3.2 (091e20ef0f, 2023-11-25, custom)"
   sodipodi:docname="logo.svg"
   xmlns:inkscape="http://www.inkscape.org/namespaces/inkscape"
   xmlns:sodipodi="http://sodipodi.sourceforge.net/DTD/sodipodi-0.dtd"
   xmlns="http://www.w3.org/2000/svg"
   xmlns:svg="http://www.w3.org/2000/svg"><sodipodi:namedview
     id="namedview1"
     pagecolor="#ffffff"
     bordercolor="#666666"
     borderopacity="1.0"
     inkscape:showpageshadow="2"
     inkscape:pageopacity="0.0"
     inkscape:pagecheckerboard="0"
     inkscape:deskcolor="#d1d1d1"
     inkscape:document-units="mm"
     inkscape:zoom="0.35355339"
     inkscape:cx="575.58492"
     inkscape:cy="1132.7851"
     inkscape:window-width="1920"
     inkscape:window-height="1051"
     inkscape:window-x="0"
     inkscape:window-y="0"
     inkscape:window-maximized="1"
     inkscape:current-layer="layer14" /><defs
     id="defs1" /><g
     inkscape:groupmode="layer"
     id="layer3"
     inkscape:label="Background"
     style="display:inline" /><g
     inkscape:groupmode="layer"
     id="layer4"
     inkscape:label="Lable"
     style="display:inline"
     sodipodi:insensitive="true"><path
       style="display:inline;fill:#000000"
       d="m 181.34628,456.66268 c -5.77562,-0.33649 -10.37819,-1.81513 -14.97335,-4.8104 -6.43946,-4.19745 -11.50468,-11.29185 -13.49011,-18.8944 -0.71946,-2.75493 -0.82133,-3.58258 -0.8264,-6.71415 -0.005,-3.02774 0.0998,-3.96741 0.68706,-6.16828 1.52886,-5.72937 3.97857,-10.01526 8.12318,-14.21196 3.17083,-3.21068 5.88616,-5.02943 9.64976,-6.46347 3.11152,-1.18559 3.96168,-1.3873 7.24546,-1.71905 3.6124,-0.36496 186.33727,-0.37521 191.96416,-0.0108 4.90158,0.31746 8.05161,1.10767 11.71198,2.93802 10.95307,5.47702 17.42552,17.85213 15.69126,30.00113 -0.94121,6.59345 -3.59246,11.86466 -8.45638,16.81299 -4.29049,4.36495 -8.71447,7.01072 -13.96847,8.35387 -2.16062,0.55235 -3.53335,0.69212 -8.65341,0.88103 -7.54729,0.27846 -179.93119,0.28354 -184.70474,0.005 z m 140.57755,-12.93766 c 8.00989,-1.65295 12.86744,-7.6973 12.87935,-16.02608 0.005,-3.22105 -0.36784,-4.88241 -1.74148,-7.76811 -1.88142,-3.95244 -5.83494,-7.00337 -10.68149,-8.24291 -4.08102,-1.04375 -9.59858,-0.50988 -13.34074,1.29082 -1.91832,0.92309 -4.66,3.53837 -5.90014,5.62812 -3.13479,5.28244 -3.24503,12.61284 -0.26573,17.66887 3.69815,6.27594 10.96544,9.1177 19.05023,7.44929 z m -5.91485,-8.50902 c -1.70514,-0.49419 -3.35088,-1.88033 -4.19159,-3.53041 -0.7099,-1.39336 -0.79842,-1.82414 -0.78834,-3.83646 0.018,-3.59742 1.39421,-5.98466 4.22197,-7.32376 2.68542,-1.27169 5.69178,-0.67303 7.68181,1.5297 1.43604,1.58953 1.80831,2.65913 1.82619,5.24699 0.0125,1.80777 -0.10367,2.50848 -0.5921,3.57188 -1.56939,3.4168 -5.01771,5.25217 -8.15794,4.34206 z m -116.28595,7.94865 c 3.67638,-0.59654 7.27964,-3.08122 8.53775,-5.88732 0.48914,-1.09097 0.61752,-1.84257 0.61923,-3.62527 0.003,-2.72389 -0.51796,-3.89647 -2.48035,-5.58684 l -1.30577,-1.12477 0.86529,-1.01089 c 1.73296,-2.02458 2.22639,-5.50634 1.1776,-8.30948 -1.15914,-3.09806 -3.71581,-4.8737 -7.80264,-5.41901 -2.43527,-0.32494 -16.22048,-0.2159 -17.06422,0.13497 -0.31944,0.13284 -0.46675,0.71488 -0.59372,2.34583 -0.21938,2.81797 -0.21937,23.48095 2e-5,26.29898 0.14996,1.92633 0.23131,2.1817 0.72602,2.27907 1.22027,0.24019 15.74583,0.16029 17.32079,-0.0953 z m -9.48762,-10.43863 v -1.98438 h 3.95152 c 4.63427,0 5.30889,0.16895 5.30889,1.32951 0,1.11351 -0.6477,2.27395 -1.37846,2.46971 -0.33325,0.0893 -2.24302,0.16393 -4.24393,0.16592 l -3.63802,0.004 z m 0.26458,-11.12 v -2.05192 l 3.59204,0.13707 c 2.22057,0.0847 3.71063,0.25564 3.90261,0.44762 0.35097,0.35098 0.42523,2.77116 0.0952,3.10124 -0.11847,0.11847 -1.87464,0.26096 -3.9026,0.31665 l -3.68721,0.10126 z m 29.85566,21.48966 c 0.15792,-0.19028 0.74416,-1.4702 1.30276,-2.84427 l 1.01563,-2.49831 4.21974,-0.0193 c 2.32086,-0.0106 4.45787,-0.0947 4.74892,-0.18675 0.47242,-0.1495 0.62575,0.12781 1.43001,2.58639 0.53015,1.62062 1.07454,2.82505 1.32292,2.92689 0.72262,0.29627 6.16857,0.4345 7.69811,0.19539 l 1.4552,-0.22749 -0.0845,-1.18236 c -0.0465,-0.6503 -1.19037,-4.27799 -2.542,-8.06153 -1.35163,-3.78354 -3.44412,-9.82268 -4.64999,-13.4203 -1.20586,-3.59763 -2.41169,-6.90161 -2.67963,-7.34219 l -0.48714,-0.80105 h -5.82472 c -5.30346,0 -5.8683,0.0436 -6.31164,0.48691 -0.54878,0.54879 -0.76757,1.14449 -4.67991,12.74226 -1.54632,4.5839 -3.34314,9.88218 -3.99293,11.77396 -0.64979,1.89177 -1.25126,3.93947 -1.3366,4.55046 -0.14771,1.05746 -0.11854,1.11901 0.60653,1.27991 0.41894,0.093 0.88077,0.20875 1.02629,0.2573 0.14552,0.0485 1.88711,0.0977 3.8702,0.10914 2.66734,0.0155 3.68035,-0.0691 3.89275,-0.32507 z m 4.27559,-13.54543 c 0,-0.11372 0.22839,-0.99351 0.50754,-1.95508 0.27915,-0.96157 0.77179,-2.9166 1.09476,-4.3445 0.32297,-1.42789 0.67547,-2.49946 0.78334,-2.38125 0.18175,0.19918 1.21574,3.90867 1.99586,7.16024 l 0.33327,1.38907 -0.96832,0.002 c -0.53258,0.001 -1.59341,0.0774 -2.35739,0.16914 -0.76398,0.0918 -1.38906,0.0738 -1.38906,-0.0399 z m 33.77858,13.56066 c 0.11426,-0.1819 0.22698,-5.07449 0.2505,-10.87242 l 0.0428,-10.54169 2.71915,-0.11425 c 3.19725,-0.13434 3.97182,-0.43199 4.40292,-1.69193 0.32677,-0.95499 0.4686,-6.51242 0.18507,-7.25129 -0.14314,-0.37301 -1.38743,-0.41639 -11.44323,-0.39891 -6.20545,0.0108 -11.81841,0.10009 -12.47325,0.19844 l -1.19063,0.17883 0.064,4.21793 c 0.0352,2.31987 0.1723,4.32626 0.3047,4.45866 0.1324,0.1324 2.09696,0.25839 4.36569,0.27998 l 4.12496,0.0393 0.002,10.76237 c 0.002,10.02637 0.0338,10.77064 0.46513,10.88337 0.25466,0.0666 2.15264,0.13481 4.21772,0.15169 2.74456,0.0224 3.81058,-0.0583 3.96243,-0.30004 z m 18.21204,-7.90207 v -8.10051 l 1.40441,2.0151 c 0.77243,1.1083 2.13419,3.29944 3.02614,4.86921 0.99323,1.74804 1.7633,2.82468 1.98706,2.77813 0.20094,-0.0418 1.4994,-2.27866 2.88546,-4.97079 1.38607,-2.69214 2.5462,-4.92202 2.57806,-4.95529 0.0319,-0.0333 0.006,3.61963 -0.0586,8.11758 l -0.11648,8.17808 0.89383,0.16303 c 0.49161,0.0897 2.56035,0.1277 4.59721,0.0845 l 3.70338,-0.0785 0.21645,-1.5875 c 0.11905,-0.87312 0.1663,-7.77875 0.105,-15.34583 l -0.11146,-13.75833 -2.48546,-0.21015 c -1.367,-0.11558 -3.6003,-0.16902 -4.96288,-0.11875 -2.46033,0.0908 -2.48258,0.0977 -3.22488,1.0039 -0.4111,0.50187 -1.43938,2.07114 -2.28507,3.48726 -0.8457,1.41612 -1.61647,2.57698 -1.71282,2.57969 -0.0964,0.003 -0.67816,-0.73922 -1.2929,-1.64872 -0.61473,-0.90951 -1.75719,-2.4521 -2.5388,-3.42798 -1.15119,-1.43731 -1.60586,-1.80899 -2.39379,-1.9568 -1.38193,-0.25925 -8.30584,0.0756 -8.64849,0.41822 -0.44553,0.44553 -0.5981,29.77779 -0.15765,30.3085 0.27722,0.33403 1.03025,0.38957 4.46287,0.32916 l 4.12937,-0.0727 z m 72.0376,1.81666 c 0.039,-3.45612 0.15807,-6.27864 0.26458,-6.27227 0.19692,0.0118 1.87358,2.32166 5.84107,8.0471 1.21431,1.75236 2.51935,3.51649 2.90009,3.9203 l 0.69224,0.73419 3.97909,-0.0727 3.97908,-0.0727 0.0683,-15.41838 0.0683,-15.41839 -4.43391,0.0726 -4.4339,0.0726 -0.1323,6.41481 -0.13229,6.41482 -0.78343,-1.25544 c -2.44494,-3.91799 -5.89704,-9.00674 -7.04908,-10.39105 l -1.3252,-1.59239 -4.54927,0.0723 -4.54927,0.0723 -0.0773,14.2875 c -0.0425,7.85813 -0.007,14.78597 0.0798,15.39522 0.1032,0.72757 0.31132,1.14942 0.60644,1.22925 0.24713,0.0669 2.35433,0.10416 4.68266,0.0829 l 4.23333,-0.0386 z"
       id="path1"
       sodipodi:insensitive="true" /></g><g
     inkscape:groupmode="layer"
     id="layer6"
     inkscape:label="Battery Shadow"
     style="display:inline"
     sodipodi:insensitive="true"><path
       id="path936"
       style="display:inline;fill:#292728;fill-opacity:1"
       d="m 323.3371,371.62876 c -35.60785,-0.0718 -74.35155,-0.21877 -111.51342,0.43917 -7.85807,0.83525 -15.88029,1.31799 -23.34285,4.15942 -21.62208,12.89675 66.87389,14.75326 75.1662,14.89813 84.89481,0.13577 123.63858,-16.18203 59.69007,-19.49672 z"
       sodipodi:nodetypes="ccccc"
       sodipodi:insensitive="true" /></g><g
     inkscape:groupmode="layer"
     id="layer7"
     inkscape:label="Wings"
     style="display:inline"
     sodipodi:insensitive="true"><g
       inkscape:groupmode="layer"
       id="layer11"
       inkscape:label="Wings_Black"
       style="display:inline"
       sodipodi:insensitive="true"><path
         id="path13"
         style="display:inline;fill:#000000"
         d="m 210.47559,310.60646 110.47937,0.0165 1.93198,-0.20688 c 1.31345,-0.18008 1.97501,-0.51538 2.09982,-0.54895 l 1.51154,-0.75447 c 3.21194,-1.60304 5.6468,-2.24414 9.05784,-2.38539 4.40468,-0.18239 6.79143,0.48736 10.69341,2.99982 2.66767,1.71783 3.86774,2.79208 6.08076,5.44515 2.151,2.57888 2.7745,2.81174 3.93465,1.46967 0.4712,-0.54503 1.14407,-1.89296 1.57354,-3.15019 2.23066,-6.53119 5.46384,-11.15092 10.78022,-15.40475 4.48436,-3.58767 8.81099,-5.17652 14.1087,-5.17952 5.94201,-0.004 9.86894,1.85781 14.65131,6.94583 1.57435,1.67515 2.30655,1.89048 3.19257,0.93947 0.65373,-0.70186 0.6155,-0.34348 0.6599,-6.16758 0.0395,-5.18514 0.30322,-6.68205 1.73375,-9.83713 2.83874,-6.26088 10.37195,-12.89064 17.47542,-15.37993 3.43705,-1.20457 6.25024,-1.63815 10.6257,-1.63815 5.89414,0 9.71787,0.93025 14.70092,3.57601 4.43412,2.35446 6.64508,4.0532 11.26081,8.6527 2.60463,2.59562 4.66282,4.44004 4.95422,4.44004 0.29151,0 0.68948,-0.35699 0.95859,-0.85989 0.40061,-0.74825 0.48534,-2.0624 0.64958,-10.12032 0.29769,-14.6048 1.22345,-23.35174 3.42253,-32.34324 3.99795,-16.34741 14.19379,-32.41408 26.30589,-41.45432 7.14493,-5.33295 15.02055,-6.36707 20.3724,-2.67529 0.72744,0.5019 2.33624,1.8528 3.57394,3.00189 2.67537,2.48378 3.22469,2.73639 3.85558,1.77353 0.56301,-0.85924 0.39881,-2.54665 -0.49455,-5.08341 -1.06916,-3.03611 -5.13281,-11.98308 -6.83266,-15.04353 -3.1946,-5.75154 -8.04385,-12.57966 -11.44477,-16.11581 -4.56541,-4.9758 -2.39,-2.36532 -7.1391,-7.15357 -2.39589,-2.41557 -12.26799,-11.3253 -14.85594,-13.05243 -5.44525,-4.15502 -11.4349,-7.54161 -17.50436,-10.70271 -3.64383,-1.85119 -7.89365,-3.78314 -10.67325,-4.8519 -0.94585,-0.36367 -2.2561,-0.88998 -2.91094,-1.16943 -5.90105,-2.51825 -16.87651,-6.30022 -23.4151,-8.06824 -2.47808,-0.67007 -7.81249,-1.98367 -9.12865,-2.24793 -0.65483,-0.13148 -2.91652,-0.60298 -5.02656,-1.04748 -2.10997,-0.4445 -6.03935,-1.22546 -8.73125,-1.73581 -6.77966,-1.28505 -11.3785,-2.28535 -11.3745,-2.47375 0.002,-0.0873 0.74588,-0.56633 1.65364,-1.06454 2.2018,-1.20839 4.55724,-3.48136 5.11184,-4.93355 0.41715,-1.09232 0.41221,-1.19008 -0.0708,-2.01641 -0.64025,-1.09626 -2.40252,-2.18558 -4.44986,-2.75022 -1.06879,-0.29476 -4.53124,-0.50331 -8.31939,-0.58239 l -0.007,-0.009 c -1.89389,-0.0395 -3.86952,-0.0466 -5.66787,-0.016 l 0.005,-0.001 c -1.79795,0.0306 -3.41973,0.0988 -4.6054,0.21032 -5.287,0.49713 -11.67838,1.72377 -16.06724,3.08405 -6.65818,2.06375 -10.48411,5.52673 -11.53883,10.44432 -0.37799,1.7625 -0.15088,3.39516 0.71986,5.17488 0.92614,1.89296 2.37647,3.1367 5.10511,4.37906 1.25073,0.56947 2.96757,1.35363 3.81527,1.74202 4.63396,2.12308 6.81422,8.30094 6.81922,19.3213 0.002,5.3484 -0.4548,9.65148 -1.61798,15.24661 -1.46086,7.02435 -2.88371,11.19703 -5.72834,16.79691 -3.0866,6.07659 -5.4228,9.37263 -9.59166,13.53096 -4.43142,4.42087 -8.50835,7.50981 -13.53354,10.25518 -2.28403,1.24775 -7.09704,3.21169 -8.38037,3.41995 -1.33881,0.44607 -2.36075,0.75829 -3.80866,1.18976 -0.0893,0.0266 -0.14954,0.062 -0.36086,0.0899 l -107.03481,-10e-4 c -0.15288,10e-4 -1.89951,-0.1529 -2.21379,-0.2246 -1.13146,-0.25118 -0.68533,-0.23989 -3.86525,-1.30811 -1.49012,-0.51031 -4.47712,-1.86074 -6.55812,-2.88278 -2.35305,-1.15779 -4.98564,-2.56749 -7.18102,-4.12719 -2.21384,-1.57282 -4.30356,-3.05904 -6.62951,-5.65981 -0.10451,-0.11685 -0.57712,-0.93252 -1.28209,-1.7234 -0.70494,-0.79096 -1.44883,-1.76252 -1.65313,-2.15905 -0.20427,-0.3965 -0.4373,-0.78037 -0.5178,-0.85317 -0.30779,-0.2781 -1.83916,-2.6829 -1.83916,-2.8882 0,-0.1186 -0.22268,-0.49941 -0.49558,-0.84646 -0.2729,-0.34704 -1.2153,-2.00022 -2.09393,-3.67368 -7.57828,-14.43395 -9.84478,-38.27588 -4.64519,-48.86937 1.32082,-2.69116 2.74586,-3.92882 6.17688,-5.36659 1.52793,-0.64027 3.10566,-1.35993 3.50573,-1.59939 2.30153,-1.37779 4.23194,-4.28011 4.59145,-6.90294 0.18977,-1.38449 -0.40466,-3.78881 -1.29966,-5.25962 -2.35587,-3.87175 -6.29006,-6.17065 -13.80691,-8.06825 -7.10132,-1.79266 -13.1059,-2.50989 -21.03541,-2.51199 l -0.001,-0.002 -5.2e-4,5.2e-4 v 5.1e-4 l 5.2e-4,10e-4 -5.2e-4,0.001 c -9.94073,-0.003 -12.96303,1.23123 -12.96303,5.29115 0,1.95838 0.53771,2.75531 2.85874,4.23747 3.87878,2.4771 3.85502,2.41871 1.17925,2.89956 -20.55983,3.69484 -28.10258,5.66803 -45.091818,11.79618 -8.881041,3.20361 -15.242708,6.12273 -24.148397,11.0815 -9.91839,5.52237 -16.767851,10.3786 -25.01346,17.73483 -8.608018,7.67952 -15.849934,15.96355 -20.823019,23.81767 -3.605314,5.6939 -7.903402,16.08842 -8.537463,20.64732 -0.26728,1.92138 -0.07081,3.29747 0.471289,3.29747 0.35833,0 1.543948,-0.96265 3.89692,-3.16311 4.576735,-4.28069 9.573564,-5.4677 15.53962,-3.6928 5.665596,1.68551 12.650724,7.01234 18.02939,13.74955 0.864991,1.08318 1.542473,1.99325 2.107042,2.67729 l 4.122975,6.49901 c 0.701421,1.36187 3.681588,7.40607 3.683588,7.62215 1.035436,2.42882 1.985149,4.88456 2.789494,7.39645 0.417211,1.29477 1.548801,5.67189 2.368331,9.16223 0.445751,1.89869 1.163961,6.43728 1.355472,8.56485 0.06549,0.72761 0.179532,1.85871 0.253732,2.51355 0.07423,0.65485 0.326461,3.86953 0.560172,7.14375 0.35029,4.90649 0.371648,6.62743 0.121957,9.78958 -0.36729,4.65072 -0.464625,5.64909 -0.799435,8.20208 -0.360551,2.74975 -0.338773,3.33904 0.139527,3.81734 0.228611,0.22867 0.317977,0.42026 0.198437,0.42426 -0.11953,0.004 -0.01088,0.12819 0.241846,0.27544 0.681381,0.397 1.091185,0.0941 4.751648,-3.51555 1.812942,-1.78778 3.465524,-3.37397 3.672644,-3.52485 4.003156,-2.91596 9.002855,-5.56547 12.668477,-6.71328 4.040271,-1.26508 5.408911,-1.47033 9.668661,-1.44953 4.68309,0.0229 6.79579,0.48703 10.64173,2.33785 3.15694,1.51896 5.22705,2.93969 7.68325,5.27203 3.20665,3.04465 5.66253,6.6335 6.59236,9.63145 0.66636,2.14837 0.90448,6.21275 0.6041,10.31823 -0.32072,4.38368 -0.1417,5.17045 1.20355,5.28908 0.65823,0.0581 1.09426,-0.22053 2.58743,-1.65519 4.35872,-4.1871 7.43994,-5.81557 12.78062,-6.75359 2.34221,-0.4115 7.32029,-0.21261 9.50071,0.37982 2.11871,0.57566 6.50049,2.77586 8.46667,4.25038 1.62025,1.2154 3.09445,2.65309 4.47414,4.16771 v 0.17932 c 0,0.0181 0.0145,0.0326 0.0326,0.0326 h 0.14469 c 3.07318,3.42932 5.4453,7.35966 6.34587,10.96987 0.562,2.25304 1.57773,4.10208 2.25309,4.10208 0.77159,0 1.56783,-0.60704 4.47673,-3.41323 4.48934,-4.33051 6.97216,-5.76996 11.05256,-6.40736 4.07441,-0.6365 8.24035,0.21924 12.75994,2.62155 M 149.82496,103.75645 c 8.03345,-0.13059 16.89772,0.77153 24.25227,2.46806 8.0822,1.86464 11.56222,4.30204 12.72067,8.90902 0.76045,3.02421 -1.46412,6.27297 -5.29735,7.737 -3.23849,1.23684 -5.50566,2.53307 -6.5934,3.76876 -4.79577,5.44834 -6.42061,17.54895 -4.22196,31.44614 0.29928,1.89177 0.71199,4.12421 0.91726,4.96094 0.96997,3.95431 1.2007,4.76269 2.17247,7.60677 4.79546,14.03466 11.99481,24.05892 22.20433,30.91801 3.51105,2.35878 10.47269,5.61479 13.84308,6.47454 1.26044,0.38552 2.33489,0.65223 3.98566,0.6867 35.53284,-0.13034 71.37314,0.022 107.02101,0.022 0.29308,-0.0304 0.32193,-0.0386 0.47919,-0.0716 l 4.14796,-1.0831 c 0.46822,-0.18567 0.96499,-0.3797 1.54668,-0.56844 6.72136,-2.1807 16.03557,-7.95621 20.96719,-13.00076 1.70067,-1.73956 3.55486,-3.84244 4.39612,-4.98522 0.10712,-0.14546 0.55822,-0.74085 1.002,-1.32292 3.82949,-5.02223 8.60966,-14.71765 10.30532,-20.90208 2.43604,-8.88486 3.64316,-18.74185 3.08508,-25.18296 -0.44674,-5.15366 -1.46444,-9.31326 -3.04012,-12.4225 -1.4226,-2.80752 -2.98042,-4.05108 -7.06934,-5.64461 -4.5174,-1.76053 -5.78483,-2.79539 -6.60735,-5.39502 -0.42027,-1.32833 -0.22854,-3.72992 0.40411,-5.06533 0.69867,-1.47457 2.94995,-3.6084 4.66483,-4.4204 3.03331,-1.43632 8.03577,-2.81295 13.58522,-3.73931 4.83877,-0.80768 7.81334,-1.134 11.94604,-1.19217 1.37753,-0.0194 2.88374,-0.009 4.63073,0.0243 6.78309,0.12556 8.06123,0.32101 9.69398,1.48363 0.42715,0.30416 0.84319,0.48696 0.92449,0.40566 0.0813,-0.0813 0.11134,0.18658 0.0651,0.59583 -0.13528,1.23209 -1.13447,1.91471 -6.3593,4.33927 -2.29188,1.06338 -5.42396,1.72687 -5.42396,1.1498 0,-0.13015 0.74414,-0.63719 1.65365,-1.12758 2.93039,-1.58013 5.22552,-3.17802 5.22552,-3.63802 0,-0.40542 -0.5244,-0.42998 -6.28385,-0.28422 -13.26791,0.33571 -24.68972,2.61879 -29.87673,5.97121 -1.83202,1.18421 -2.49742,2.09445 -2.67374,3.65869 -0.11716,1.03951 -0.0448,1.22385 0.78961,2.01073 0.58798,0.55454 1.99307,1.28726 3.90519,2.03657 4.62762,1.81321 6.62344,3.27051 8.33696,6.088 2.69752,4.43599 4.41161,12.55851 4.43901,21.03541 0.0239,7.39048 -1.47435,16.01358 -4.00544,23.05389 -5.306,14.75834 -13.57188,25.59288 -25.5633,33.50854 -2.56944,1.69629 -4.53386,3.14216 -8.10917,5.21151 -3.96759,1.89633 -5.59437,2.71575 -10.94174,3.41148 l -107.3122,-0.008 c -0.51869,-0.0904 -1.19122,-0.15168 -2.22788,-0.42387 -0.0598,-0.0131 -0.94476,-0.29013 -1.0654,-0.33326 -0.0153,-0.005 -0.0303,-0.01 -0.045,-0.0165 -0.001,-5.2e-4 -0.002,-3.7e-4 -0.003,-0.002 -0.60524,-0.198 -1.47388,-0.53183 -3.64784,-1.37562 -12.46946,-4.84 -21.84789,-12.6791 -28.80186,-24.0745 -6.18803,-10.13996 -9.7324,-21.05663 -10.75852,-33.13597 -0.61516,-7.24146 0.55946,-18.48659 2.43138,-23.27661 2.13557,-5.46504 4.35443,-7.58751 10.23813,-9.79579 1.07171,-0.40219 2.36368,-1.09593 2.87115,-1.5415 0.90907,-0.79827 0.92093,-0.83651 0.82113,-2.60243 -0.0878,-1.55361 -0.20569,-1.90164 -0.88676,-2.61534 -1.93577,-2.02847 -8.19329,-3.9407 -18.11569,-5.53558 -6.87281,-1.10455 -19.78004,-1.81381 -18.38855,-1.01028 0.29104,0.16806 0.69092,0.46659 0.88832,0.66301 0.64608,0.64286 3.30963,2.3643 5.06481,3.27319 1.57298,0.81467 1.65575,0.89855 0.97152,0.98185 -1.76917,0.21549 -9.10815,-2.83869 -10.60349,-4.41265 -0.67944,-0.71517 -0.74004,-0.90971 -0.52452,-1.67793 0.17768,-0.63337 0.52939,-1.01212 1.2976,-1.39785 0.93155,-0.46769 1.69165,-0.53957 6.55205,-0.61857 z m 5.03587,11.96206 v 5.1e-4 5.2e-4 5.2e-4 5.2e-4 l -5.2e-4,5.1e-4 c 1.89681,0.0234 3.48547,0.17859 4.76406,0.46509 1.15058,0.25786 1.26382,0.34968 1.19062,0.96532 -0.10684,0.89887 -0.50898,0.9946 -6.9603,1.65261 -10.67692,1.08913 -23.57324,3.35971 -32.31689,5.68957 -9.33405,2.48739 -17.77563,5.27557 -25.613939,8.40931 h -0.02326 l -0.967899,0.39326 c -0.209319,0.0851 -0.410778,0.17435 -0.619084,0.25993 -1.932934,0.79427 -3.828922,1.61442 -5.686991,2.4567 -0.471054,0.21347 -0.944224,0.42611 -1.410767,0.64285 -2.069978,0.96168 -4.097234,1.95824 -6.08335,2.98535 -0.160588,0.0832 -0.324035,0.16335 -0.484208,0.24701 -4.814068,2.51087 -9.424595,5.19836 -13.841532,8.13852 -0.43,0.28624 -0.993124,0.7443 -1.453141,1.06299 -1.882114,1.30829 -3.879427,2.7543 -5.898865,4.31446 -0.844428,0.6523 -1.447654,1.14977 -2.257743,1.80041 -1.910708,1.53123 -3.736288,3.04165 -5.174362,4.34805 -0.04092,0.0372 -0.11586,0.11162 -0.15968,0.15193 -0.154375,0.14254 -0.444507,0.36002 -0.587561,0.49558 -0.261343,0.24766 -0.581275,0.61396 -0.855762,0.88005 -1.832662,1.79218 -4.355758,4.36676 -6.102986,6.24716 -0.10844,0.11671 -0.220186,0.24646 -0.331763,0.36742 -1.989784,2.14876 -3.50669,3.85443 -4.365625,4.97231 h -0.0041 l -3.558956,4.19716 0.02377,0.005 c -0.02253,0.0202 -0.03996,0.036 -0.06253,0.0563 l -0.03824,-0.008 -0.870748,0.81907 c -0.06047,0.0568 -0.17145,0.16307 -0.242879,0.23047 -0.337331,0.31741 -0.711763,0.61936 -0.985986,0.89194 -1.098545,1.09197 -2.294953,2.17782 -2.658753,2.41329 -0.04387,0.0284 -0.119919,0.16452 -0.168982,0.20929 l -0.613399,0.47956 c 2.010946,-3.58733 4.775524,-8.12391 6.690548,-10.70736 9.273489,-12.51039 22.971307,-24.06093 39.077201,-32.94941 2.835055,-1.56462 10.49469,-5.32788 13.752132,-6.75721 11.00605,-4.82946 27.32761,-9.98035 39.59862,-12.49743 11.15314,-2.28781 19.61361,-3.40126 25.30388,-3.33106 z m 231.77914,0.50694 c 8.59775,0.18161 12.13625,0.59525 23.27196,2.72284 18.31451,3.49876 34.45522,8.76403 49.00373,15.98403 11.82728,5.86974 19.08514,10.55346 27.64896,17.84336 5.1891,4.417 12.17986,11.63862 15.64349,16.16077 1.59243,2.07894 4.1578,5.95372 6.4704,9.59063 l -9.94668,-10.31733 c -5.63179,-6.55901 -11.9016,-11.59933 -19.0469,-16.9947 -14.80647,-11.18088 -33.59921,-19.57089 -57.81146,-25.81083 -11.38471,-2.93415 -20.41115,-4.5428 -34.925,-6.22494 -2.59274,-0.30051 -4.32694,-0.54589 -5.48257,-0.77064 l -1.06637,-1.69696 z m 108.58097,78.78383 h 0.20825 c -0.0693,0.0373 -0.13895,0.0614 -0.20825,0.0992 z M 92.513216,267.8715 h 0.05323 c -0.01775,0.008 -0.03547,0.0152 -0.05323,0.0227 z m 36.686654,8.25738 h 0.0651 v 0.0656 c -0.0197,-0.0233 -0.0453,-0.0424 -0.0651,-0.0656 z"
         sodipodi:nodetypes="ccccssccscccccsscscsscscssssssssscsssssccsscsccccccssssccccscscccccsscscssccscscsccccccsccccsscscsccccscsscccsssscssccsssccsccsscsscscccsscsccsccccccsscsccsscssscssccscsscssccsccccccsccccscscsscssccssccccccccccsccccccccccscccscscscccccccccssccsscscccccsccccscccccccccccccccc" /></g><g
       inkscape:groupmode="layer"
       id="layer1"
       inkscape:label="Wings_Infill"
       style="display:inline"
       sodipodi:insensitive="true"><path
         id="path1519"
         style="display:inline;fill:#fd9709"
         d="m 209.63733,241.69222 c -0.41198,0.21562 -2.41567,1.14561 -4.45296,2.06706 -4.95531,2.24127 -7.11718,3.70744 -10.59521,7.18561 -2.82129,2.82139 -5.03777,5.8003 -7.24556,9.73842 -0.46991,0.83821 -0.95289,1.46295 -1.07332,1.38855 -0.1204,-0.0744 -0.0444,0.0738 -0.0951,0.33796 -2.67856,13.95027 -4.67824,31.99459 -6.43528,45.33565 -0.015,0.11377 0.42921,1.27478 0.70023,1.88318 0.3079,0.6912 0.68095,1.25677 0.82941,1.25677 0.14846,0 0.97806,-0.62333 1.84329,-1.38493 1.8209,-1.60283 5.65388,-3.86817 8.1623,-4.824 2.47803,-0.94425 4.2564,-1.23896 7.42693,-1.23196 3.47581,0.008 6.10914,0.65156 9.47178,2.31665 1.98254,0.98171 2.50065,1.12451 2.52546,1.12451 l 114.06539,-0.79013 c 0.78964,-0.3665 1.59525,-0.72013 2.39265,-1.07695 3.23624,-1.46482 6.69316,-2.16531 9.81852,-1.98902 2.80855,0.15842 7.08902,1.46356 9.89294,3.01635 2.16273,1.1977 6.11861,3.88047 6.74894,4.57698 h 5.2e-4 c 0.56502,0.62434 0.92397,0.67774 0.92397,0.13694 0,-12.40037 -5.38799,-40.51143 -8.22275,-50.91575 l -2.39675,-3.5171 c -4.16388,-6.11157 -6.1939,-8.23813 -10.54716,-11.04739 -2.89982,-1.87131 -7.57805,-3.90798 -8.57519,-3.83284 v -0.002 c -37.95426,-0.07 -76.00611,-0.0351 -113.99568,-0.0351 -0.63052,0.0526 -0.92671,0.15658 -1.16737,0.28254 z"
         sodipodi:nodetypes="ssssssssssssscccssccsccscscs" /><path
         style="display:inline;fill:#fda114"
         d="m 354.61387,310.95475 c -0.19872,-0.20326 -1.47167,-9.15779 -3.22042,-19.78081 -3.11694,-18.93429 -4.78576,-29.05377 -5.05323,-31.1819 -0.14206,-1.13034 0.41299,-2.77069 1.87887,-6.7858 1.28207,-3.51165 1.59663,-4.33128 1.8518,-4.82506 0.13058,-0.25269 0.23742,-0.61732 0.23742,-0.81031 0,-0.71053 3.18984,-6.75459 5.05501,-9.57817 2.66812,-4.03911 6.72814,-8.0747 9.62937,-9.57144 3.91342,-2.01891 6.24394,-2.06807 10.15067,-0.21408 3.4152,1.62073 7.43042,5.29671 10.02454,9.1776 1.1799,1.76518 4.15225,6.84163 5.17545,8.83912 0.5408,1.05575 6.51669,44.44966 6.52908,47.4109 l 0.003,0.60878 -0.8599,-0.65041 c -1.73331,-1.31104 -5.84997,-3.08162 -8.34345,-3.58852 -6.52536,-1.32653 -13.51607,0.0347 -18.71019,3.64337 -0.87313,0.60661 -1.82563,1.2506 -2.11667,1.43109 -0.29104,0.18049 -1.96098,1.75692 -3.71098,3.50317 -4.00193,3.99336 -6.02693,6.98381 -7.43229,10.97574 -0.61035,1.73371 -1.01279,2.25051 -1.08763,1.39673 z"
         id="path8"
         sodipodi:nodetypes="cssssssssssccsssssscc" /><path
         style="display:inline;fill:#fda114;fill-opacity:1"
         d="m 179.51978,307.47208 c -1.50593,-3.00168 -4.90016,-7.38396 -8.01257,-10.34501 -2.97616,-2.83143 -8.31075,-6.78696 -15.73938,-7.9536 -5.58813,-0.87759 -13.28745,0.75847 -18.07973,3.84189 -1.12656,0.72485 -1.72497,1.0073 -1.94581,0.91121 -0.10723,-0.0667 -0.0934,-0.19815 -0.10666,-0.31553 l -3e-5,-0.66236 c 1.0579,-4.62458 3.51915,-29.7952 8.17837,-49.53631 0.1616,-0.68469 1.72603,-0.95462 3.27519,-2.53388 3.37547,-3.44102 6.6813,-7.5484 8.22725,-8.94507 1.36804,-1.23594 4.72405,-3.44268 5.8129,-3.82225 1.29143,-0.45021 1.83058,-0.48885 2.2866,-0.65814 0.40176,-0.14915 2.01403,-0.21463 3.58689,0.30426 4.35704,1.4374 7.88799,5.15577 11.45653,12.06465 2.57711,4.98939 4.60041,11.08113 5.88774,15.7993 0.63258,2.31846 0.91173,3.31515 1.48848,5.46171 l 0.46461,1.79131 -1.26744,10.57796 c -0.69873,5.8316 -2.04958,14.97433 -2.7847,20.3586 -0.46939,4.44855 -1.25433,8.79781 -2.13729,13.17296 -0.17988,0.89133 -0.35626,0.956 -0.59091,0.48829 z"
         id="path2"
         sodipodi:nodetypes="ccsssccssssssssccscscc" /><path
         id="path1112"
         style="display:inline;fill:#fdaa27;fill-opacity:1"
         d="m 411.74644,142.99696 c -0.061,-0.0106 1.90379,2.02851 4.3279,4.41058 11.85079,11.64523 20.51729,23.93088 25.73487,36.48098 3.87475,9.32014 6.62671,17.86079 8.14059,25.2646 1.19634,5.85089 2.59371,21.01057 2.43861,26.45834 -0.0771,2.70641 -0.1203,2.91041 -0.61237,2.91041 -0.11636,0 -0.18334,-0.0179 -0.20557,-0.0649 -0.1993,-0.4216 -0.39571,-0.73533 -0.54919,-1.14844 -0.21068,-0.64111 -0.3054,-1.5561 -0.56816,-2.1844 -0.24332,-0.88965 -0.60457,-1.69752 -0.95239,-2.52543 -3.06187,-7.4975 -5.925,-15.20381 -11.09648,-21.53202 -4.92461,-6.55147 -11.31299,-12.32918 -19.09961,-15.13499 -0.69234,-0.26228 -1.43317,-0.23478 -2.15129,-0.3545 -1.97023,-0.15078 -4.36002,0.075 -6.13606,1.0852 l -2.23139,1.13844 -2.09444,1.43505 c -2.11222,1.61277 -4.39621,4.82443 -5.65599,6.85126 -4.7818,7.95267 -6.15761,17.35637 -7.59179,26.37617 0.0103,2.94128 -1.4041,6.45609 -1.76475,9.46506 -0.003,-0.003 -0.002,-0.005 -0.005,-0.008 -0.23548,0.38863 -0.16107,0.53706 -0.0491,0.54467 l -1.20461,4.03712 c 0.76308,8.07713 5.99955,44.16844 6.42539,47.59235 0.0624,0.50188 0.386,-0.0803 0.476,-0.74421 0.16493,-1.2163 0.9592,-4.63368 1.56477,-6.73189 0.93144,-3.22725 1.95875,-5.16139 4.53409,-8.53694 1.82901,-2.39733 2.96044,-3.56021 5.36091,-5.50819 3.40904,-2.76644 5.0577,-3.80994 8.25531,-5.22604 4.97414,-2.20286 7.04331,-2.69779 12.27005,-2.93419 5.38391,-0.24351 9.18349,0.40106 14.72985,2.49856 4.19175,1.58522 9.40717,4.80509 13.57385,8.37985 1.8208,1.56218 2.37886,1.91983 2.41536,1.54874 0.0261,-0.2654 0.18272,-3.51876 0.34778,-7.22953 0.39325,-8.84011 1.95301,-21.83912 3.33365,-27.78125 0.97988,-4.21731 1.38314,-5.49147 3.45457,-10.91768 4.52352,-11.8496 9.57185,-19.8074 17.99941,-28.37295 3.39633,-3.45193 6.35325,-5.70007 9.91361,-7.53701 l 1.75907,-0.90743 -1.21388,-1.59887 c -1.58075,-2.08136 -5.61537,-6.20226 -7.46311,-7.62331 -2.85322,-2.34509 -5.54221,-4.35534 -8.63795,-6.60807 -2.29321,-1.66874 -4.59463,-3.29199 -6.97986,-4.99602 -22.48831,-16.06585 -31.89983,-20.70234 -42.39794,-24.97912 -3.48886,-1.42132 -7.17126,-2.67379 -11.63384,-3.87424 -4.42744,-1.191 -3.58136,-0.86523 -6.76087,-1.41776 z m 19.31665,60.23095 c -7.2e-4,-0.0116 0.0254,-0.0116 0.10232,0.0155 0.1454,0.16006 -0.10014,0.0193 -0.10232,-0.0155 z m -39.62958,41.74521 -0.0253,0.0114 z"
         sodipodi:nodetypes="sssssssscsccccccccccccsssssssssssssscccsssssscscccc" /><path
         id="path25"
         style="display:inline;fill:#fda114;fill-opacity:1"
         d="m 417.15335,195.57721 c -1.97023,-0.15078 -4.36005,0.0748 -6.13609,1.08502 l -2.2314,1.13865 -2.09422,1.43482 c -2.11222,1.61277 -4.39617,4.82459 -5.65595,6.85142 -4.7818,7.95268 -6.15774,17.35634 -7.59192,26.37615 -0.49289,4.04453 -2.73912,9.29713 -1.55912,12.69853 2.08317,-2.42917 2.8563,-5.90977 3.96947,-8.9313 2.83484,-8.03664 5.68219,-16.47151 11.45497,-22.9265 2.37724,-2.81952 6.3206,-3.20405 9.46099,-1.48171 12.25194,5.26581 21.62012,15.42051 29.44647,25.93432 2.67461,2.73828 4.90696,-0.63123 4.1116,-3.24588 -0.25736,-0.84603 -0.35171,-0.7472 -0.8274,-1.912 -3.06187,-7.49751 -5.92526,-15.20394 -11.09675,-21.53215 -4.92461,-6.55148 -11.17058,-12.23855 -18.95721,-15.04436 -0.59686,-0.16627 -1.57532,-0.32529 -2.29344,-0.44501 z m -25.47959,46.34287 c -0.54159,0.89384 0.54341,0.56622 0,0 z m -0.24025,3.05305 -0.0253,0.0114 z"
         sodipodi:nodetypes="cccccccccccsscccccccc" /><path
         style="display:inline;fill:#fd9709"
         d="m 484.6669,182.64483 c -11.4516,-9.10064 -33.83797,-25.60541 -55.66976,-34.37888 -4.3365,-1.74269 -8.65112,-3.18035 -12.85381,-4.19435 -4.09087,-0.76148 -4.23178,-0.97335 -4.78779,-1.33044 -7.29159,-4.68294 -13.64647,-9.15115 -20.27044,-14.00826 17.53227,2.72987 35.06,6.08984 51.92032,11.74242 11.31898,3.56705 22.08996,8.66443 32.4877,14.33421 9.14618,5.3809 18.35407,10.81211 25.95295,18.32667 3.59357,2.71382 7.62365,5.45951 9.4641,9.25587 1.63065,3.40693 3.48365,6.79909 4.49257,10.63691 -1.86473,-0.0497 -4.71722,-0.9533 -7.65737,-1.27937 -3.46863,-0.38468 -6.35394,0.25478 -8.90251,1.40439 -0.66951,0.302 -1.33984,0.717 -2.0416,0.91976 -0.13692,0.0396 -7.33137,-7.61198 -12.13436,-11.42893 z"
         id="path1546"
         sodipodi:nodetypes="sscsccccccssss" /><path
         id="path1109"
         style="display:inline;fill:#fdaa27"
         d="m 109.27275,148.22213 c -13.842309,5.66099 -26.387015,14.82182 -38.658461,23.02298 -3.900339,2.46732 -8.988356,6.55443 -12.189101,9.97089 -4.106214,4.49767 -7.711645,9.40111 -11.727678,13.54469 1.104357,0.85836 2.390281,1.6439 3.644824,2.44755 5.304642,3.39812 11.034698,10.57463 12.968777,13.28044 2.9694,4.15424 5.519915,8.64125 7.952786,13.06499 0.693132,2.69432 2.321581,5.57491 2.814932,8.89305 1.898103,4.44888 1.863978,8.71932 3.706149,13.03684 -0.208849,5.25694 1.530517,11.5855 1.088578,17.35113 -0.131347,3.53162 0.382303,9.44329 0.302946,11.02357 -1.760213,2.8281 3.688007,-2.15386 0.313678,1.44079 -0.792593,1.91461 4.544866,-4.01295 6.681379,-4.32938 3.520684,-2.41014 5.017712,-3.09241 8.891309,-4.62332 2.790604,-0.48439 6.047042,-2.27068 9.618412,-1.3985 5.20081,0.0171 10.9143,0.40718 14.53589,2.95773 4.78163,2.84707 8.09421,4.61408 10.99045,9.102 7.61414,8.73774 4.9845,17.7932 5.50291,15.62969 0.74982,-3.12929 1.67969,-5.75498 2.03318,-8.42098 2.37778,-13.54415 4.62337,-25.66415 5.97569,-38.51206 0.10122,-5.15207 -0.46257,-10.25636 -0.83471,-15.38158 -0.55987,-3.99199 -0.95618,-8.94096 -1.83287,-12.27043 -1.57634,-9.09971 -6.0545,-19.53236 -15.69674,-22.28923 -8.20258,-1.28775 -14.80171,5.48284 -19.961,10.92955 -7.177455,7.51884 -12.021093,17.13064 -14.602431,27.13626 0.378866,2.85025 -3.267903,6.27962 -2.14502,0.85208 0.003,-12.0251 1.79502,-24.07902 4.752809,-35.71446 4.543135,-16.02044 13.362572,-30.5424 23.799582,-43.39012 3.75083,-4.43759 7.35992,-8.25855 11.83082,-12.00608 l 0.68696,-0.79741 c -6.97075,1.23634 -13.83907,2.87231 -20.44405,5.44932 z M 79.448897,261.77317 c 0.583266,0.78087 -0.321742,0.87233 0,0 z"
         sodipodi:nodetypes="scccsscccccccccccsccccccccccccscc" /><path
         style="display:inline;fill:#fd9709"
         d="m 25.71354,193.81218 c 1.743194,-5.16674 3.051512,-11.17012 7.751391,-14.54523 8.025728,-7.47191 16.420959,-14.67188 26.048473,-20.0268 12.789164,-7.42672 25.93852,-14.41827 40.112931,-18.8276 15.730815,-5.39539 31.996605,-9.00768 48.314645,-12.0896 -2.17637,2.89376 -6.83841,5.18996 -9.98893,7.84459 -3.10626,1.76588 -5.11124,4.99045 -8.24165,6.58243 -0.94473,0.48045 -2.27133,0.62945 -3.5171,0.89312 -13.71998,2.463 -26.17148,8.98573 -37.613885,16.73431 -4.475903,3.01854 -9.264772,5.66536 -13.467345,9.06997 -6.416588,4.29984 -12.952402,9.30299 -18.470445,14.97598 -2.010218,1.69743 -3.562834,3.65839 -5.431058,5.70764 -1.318643,1.44642 -4.361238,4.57225 -4.493522,4.60159 -0.938902,0.20824 -9.445963,-6.48103 -21.003505,-0.9204 z"
         id="path1545"
         sodipodi:nodetypes="ccccccsccccssc" /><path
         id="path29"
         style="display:inline;fill:#fda114;fill-opacity:1"
         d="m 123.19196,195.52657 c -1.64779,-0.002 -3.22687,0.31085 -4.69346,0.93671 -1.5873,0.79238 -3.18649,1.57523 -4.67172,2.55366 -2.0107,1.34474 -3.80404,2.96233 -5.03422,4.16941 -2.32453,2.28086 -4.52578,4.68512 -6.63549,7.15275 -1.44517,1.93002 -2.814884,3.91841 -4.084726,5.96501 -2.242272,3.6672 -3.924287,7.58287 -5.488462,11.58818 -0.566919,1.42577 -1.083875,2.88428 -1.375496,4.42583 -0.54336,1.16204 -0.919775,3.52469 1.131197,2.06499 2.924169,-2.03291 4.857363,-5.14535 7.462594,-7.54269 6.413633,-6.59613 13.719073,-13.06013 22.830133,-15.42593 2.9941,-0.73044 6.15259,0.52144 8.00364,2.93832 2.9554,3.5427 4.49536,7.99368 6.21565,12.20959 1.89738,5.55653 2.95696,11.37635 5.28649,16.78967 1.58949,0.10235 1.82776,-0.88905 1.71197,-2.13529 -0.0374,-0.40241 -0.10287,-1.17499 -0.1522,-1.60649 -0.27595,-2.41346 -0.44829,-4.76221 -0.6127,-7.15128 l -0.24578,-2.61992 c -0.0641,-1.04551 -0.25745,-2.03721 -0.40611,-3.05632 l -0.68255,-5.36799 c -0.20115,-1.2562 -0.48537,-2.32582 -0.59344,-3.42654 -0.11831,1.03565 -0.31645,-2.31547 -0.7028,-3.01273 -0.38725,-2.01322 -1.16791,-3.60728 -1.86501,-5.58571 -0.98915,-2.71354 -2.49276,-5.21965 -4.16098,-7.56129 -2.59907,-2.56496 -5.30985,-5.37921 -9.07335,-6.06527 -0.67645,-0.31691 -1.44497,-0.17949 -2.16318,-0.23667 z"
         sodipodi:nodetypes="cssscsscccccccsscccccccccc" /></g><g
       inkscape:groupmode="layer"
       id="layer12"
       inkscape:label="Wings_Gray"
       style="display:inline"
       sodipodi:insensitive="true"><path
         style="display:inline;fill:#292728"
         d="m 392.54665,228.29154 c -0.22053,-0.33968 -0.52452,-1.3915 -0.67553,-2.33738 -0.28375,-1.77736 -0.89747,-7.50138 -0.87941,-8.20209 0.006,-0.21828 -0.0984,-1.82562 -0.23122,-3.57187 -0.13279,-1.74625 -0.30011,-4.06797 -0.37181,-5.15938 -0.0717,-1.0914 -0.19679,-2.49083 -0.27798,-3.10984 -0.0812,-0.619 -0.19354,-1.63103 -0.24968,-2.24896 -0.0561,-0.61792 -0.1637,-1.65927 -0.23902,-2.31411 -0.0753,-0.65485 -0.19769,-1.76468 -0.27193,-2.46629 -0.17301,-1.635 -1.15364,-8.53199 -1.361,-9.57225 -0.087,-0.43657 -0.19218,-1.09141 -0.23368,-1.45521 -0.20056,-1.75799 -0.48404,-3.68511 -0.70056,-4.7625 -0.1316,-0.65485 -0.30464,-1.77889 -0.38452,-2.49787 -0.0799,-0.71898 -0.19911,-1.39442 -0.26496,-1.50096 -0.0658,-0.10655 -0.18686,-0.76454 -0.26891,-1.46221 -0.0821,-0.69767 -0.19934,-1.34964 -0.26064,-1.44882 -0.0613,-0.0992 -0.17476,-0.6984 -0.25214,-1.33159 -0.0774,-0.6332 -0.19258,-1.32986 -0.25602,-1.54814 -0.0634,-0.21828 -0.17791,-0.75406 -0.25439,-1.19062 -0.0765,-0.43656 -0.20568,-1.09141 -0.2871,-1.45521 -0.0814,-0.3638 -0.20211,-1.04257 -0.26821,-1.50836 -0.0661,-0.4658 -0.30932,-1.71596 -0.54047,-2.77813 -0.23115,-1.06217 -0.47796,-2.34794 -0.54847,-2.85726 -0.0705,-0.50932 -0.30789,-1.69995 -0.52753,-2.64583 -0.21963,-0.94589 -0.45337,-2.07698 -0.51941,-2.51354 -0.066,-0.43657 -0.30239,-1.68672 -0.52522,-2.77813 -0.22283,-1.09141 -0.45628,-2.28203 -0.51879,-2.64583 -0.0625,-0.3638 -0.19013,-1.07818 -0.2836,-1.5875 -0.0935,-0.50932 -0.20297,-1.16417 -0.24332,-1.45521 -0.0404,-0.29104 -0.14877,-0.88635 -0.24091,-1.32292 -0.0921,-0.43656 -0.22632,-1.15093 -0.29816,-1.5875 -0.0718,-0.43656 -0.24236,-1.15093 -0.37891,-1.5875 l -0.24829,-0.79375 0.52527,0.62463 0.52527,0.62462 0.004,-0.62462 c 0.003,-0.48266 0.0593,-0.53729 0.24712,-0.24038 0.13369,0.21133 0.18437,0.47922 0.11263,0.59531 -0.0717,0.11609 -0.004,0.21107 0.14975,0.21107 0.15411,0 0.25579,0.0893 0.22596,0.19844 -0.10388,0.38008 0.62629,2.18281 0.88412,2.18281 0.14282,0 0.20151,0.0941 0.13042,0.20914 -0.0711,0.11503 0.0226,0.56152 0.2083,0.99219 0.86404,2.00435 1.52472,3.74969 1.64148,4.33638 0.0704,0.3536 0.20768,0.77032 0.30514,0.92604 0.0975,0.15572 0.2023,0.40219 0.233,0.54771 0.0307,0.14552 0.30493,1.09802 0.60941,2.11666 0.30447,1.01865 0.60971,2.09021 0.6783,2.38125 0.0686,0.29105 0.42628,1.66026 0.79486,3.04271 0.36859,1.38245 0.73392,2.87073 0.81185,3.30729 0.0779,0.43657 0.24961,1.21047 0.3815,1.71979 0.13189,0.50933 0.25324,1.01301 0.26966,1.11929 0.0164,0.10629 0.18973,0.88019 0.38512,1.71979 0.73601,3.16273 2.028,9.5042 2.14379,10.52238 0.0662,0.58208 0.17957,1.22667 0.25194,1.43241 0.0724,0.20574 0.19174,0.80105 0.26527,1.32291 0.0735,0.52187 0.25732,1.54416 0.40844,2.27176 0.15112,0.72761 0.32751,1.73964 0.39198,2.24896 0.0645,0.50933 0.24123,1.58089 0.39279,2.38125 0.15157,0.80037 0.33154,1.87193 0.39995,2.38125 0.0684,0.50933 0.29476,2.11667 0.50301,3.57188 0.60862,4.25276 0.91633,6.76917 1.03532,8.46666 0.48288,6.88891 0.68499,14.4198 0.38698,14.4198 -0.16705,0 -0.32789,1.23696 -0.59346,4.56416 -0.0552,0.69129 -0.24431,1.43038 -0.42031,1.64244 -0.17949,0.21629 -0.2653,0.79131 -0.19544,1.30972 0.0902,0.66951 -0.007,1.04326 -0.35308,1.3564 -0.44543,0.40311 -0.50466,0.39061 -0.8786,-0.18534 z"
         id="path575" /><path
         style="display:inline;fill:#292728"
         d="m 143.99033,227.00881 c -0.3224,-0.30036 -0.58617,-0.72709 -0.58617,-0.94829 0,-0.2212 -0.11889,-0.3287 -0.26419,-0.2389 -0.1453,0.0898 -0.2455,-0.052 -0.22266,-0.31512 0.0228,-0.26311 0.0208,-1.90714 -0.004,-3.65339 -0.0325,-2.2447 -0.12466,-3.05871 -0.31454,-2.77812 -0.2064,0.305 -0.23806,0.24375 -0.13676,-0.26459 0.0725,-0.3638 0.20371,-3.34036 0.29157,-6.61458 0.18507,-6.89656 0.23732,-7.80658 0.74434,-12.96458 0.20742,-2.11005 0.38767,-4.01505 0.40055,-4.23333 0.0129,-0.21829 0.0895,-0.90262 0.17028,-1.52074 0.0808,-0.61813 0.21162,-1.63016 0.29077,-2.24896 0.0791,-0.6188 0.19312,-1.42275 0.25325,-1.78655 0.0601,-0.36381 0.15511,-1.01865 0.21106,-1.45521 0.0559,-0.43656 0.17675,-1.09141 0.26846,-1.45521 0.0917,-0.3638 0.22316,-1.19724 0.29212,-1.85208 0.26805,-2.54534 3.04218,-16.1958 4.27462,-21.03383 0.37077,-1.45551 0.72952,-2.88451 0.7972,-3.17555 0.17283,-0.74318 0.25224,-1.00133 0.44765,-1.45521 0.47536,-1.10414 1.70808,-5.02708 1.57968,-5.02708 -0.0813,0 3.1e-4,-0.17859 0.18146,-0.39687 0.18116,-0.21828 0.24069,-0.39688 0.1323,-0.39688 -0.1084,0 -0.075,-0.14883 0.0743,-0.33073 0.45997,-0.56065 2.69821,-6.34353 2.5488,-6.58528 -0.0774,-0.12526 -0.008,-0.22774 0.15507,-0.22774 0.16269,0 0.22222,-0.11906 0.13229,-0.26458 -0.0899,-0.14552 -0.0374,-0.26458 0.11667,-0.26458 0.15411,0 0.2802,-0.22355 0.2802,-0.49677 0,-0.27323 0.1786,-0.64499 0.39688,-0.82615 0.33157,-0.27519 0.39687,-0.23698 0.39687,0.23219 0,0.30886 -0.11611,0.56156 -0.25803,0.56156 -0.16745,0 -0.16773,0.23752 -8e-4,0.67658 0.14148,0.37212 0.15515,0.61349 0.0304,0.53638 -0.12477,-0.0771 -0.31727,0.60069 -0.42779,1.50623 -0.11051,0.90554 -0.23089,1.88456 -0.26749,2.1756 -0.0366,0.29104 -0.13734,0.70776 -0.22384,0.92604 -0.0865,0.21828 -0.21271,0.87313 -0.28047,1.45521 -0.0678,0.58208 -0.24845,1.6893 -0.40155,2.46049 -0.15309,0.77119 -0.26141,1.48556 -0.24071,1.5875 0.0207,0.10194 -0.0338,0.36394 -0.12108,0.58222 -0.13559,0.33902 -1.12754,5.4913 -2.67795,13.90944 -0.53299,2.89397 -1.96538,11.86893 -2.12945,13.34264 -0.0729,0.65484 -0.4343,3.63141 -0.80308,6.61458 -0.36878,2.98318 -0.6503,5.60256 -0.62561,5.82084 0.0247,0.21828 -0.0305,0.69453 -0.12265,1.05833 -0.0922,0.3638 -0.22689,1.4949 -0.2994,2.51354 -0.0725,1.01865 -0.24162,3.28083 -0.3758,5.02708 -0.13417,1.74625 -0.24759,3.3536 -0.25204,3.57188 -0.004,0.21828 -0.13257,1.98488 -0.28472,3.92577 -0.15216,1.9409 -0.258,3.60777 -0.23522,3.70417 0.0228,0.0964 -0.0422,0.88964 -0.14446,1.76277 -0.10224,0.87312 -0.23787,2.24234 -0.3014,3.04271 -0.14058,1.77089 -0.76761,4.19837 -1.40578,5.44229 l -0.47248,0.92095 z"
         id="path576" /></g><g
       inkscape:groupmode="layer"
       id="layer2"
       inkscape:label="Wings_white-line"
       style="display:inline"
       sodipodi:insensitive="true"><path
         id="path30"
         style="display:inline;fill:#ffffff;fill-opacity:1;fill-rule:evenodd;stroke:#428f29;stroke-width:0.000191255;stroke-miterlimit:0;paint-order:markers fill stroke"
         d="m 1343.3594,410.65044 c -7.4368,3.4987 -15.931,11.43186 -18.6289,17.40039 -2.278,5.03967 -2.9149,13.2086 -1.4238,18.23437 1.3827,4.66048 3.1633,7.93016 6.5234,10.83985 3.3624,2.91669 8.3013,5.46954 15.9922,8.67578 7.6542,3.19096 12.714,5.55439 16.4258,7.86133 3.3791,1.8444 5.7948,4.71679 8.3261,7.52548 11.0374,14.52315 17.7122,46.77846 16.0235,77.43554 -1.1852,21.51635 -4.2974,41.75562 -9.8985,64.37696 -4.0909,16.52166 -9.8605,31.58275 -19.3964,50.63476 -12.3982,24.7703 -23.1348,40.24458 -40.8047,58.80469 -3.7199,3.90722 -8.2726,8.0212 -13.3907,12.16211 -5.118,4.14092 -10.8029,8.30948 -16.7832,12.32422 -5.9802,4.01474 -12.2561,7.87559 -18.5625,11.4043 -6.3063,3.52871 -12.6417,6.72539 -18.7382,9.4082 -10.9401,4.8143 -21.8147,7.96536 -35.5039,11.52539 l -206.1368,-0.23047 c -46.70753,-0.91921 -96.13773,-0.78906 -142.0711,-0.33406 -43.31168,0.42903 -70.8516,1.26446 -103.32854,-15.85519 -14.43839,-7.54836 -33.55346,-17.5135 -52.23704,-36.65843 -15.57892,-15.9636 -26.66211,-31.87066 -37.92578,-54.43555 -16.88918,-33.83465 -26.59485,-69.17063 -29.86719,-108.75 -0.75182,-9.09311 -0.74358,-30.84352 0.0137,-38.5 2.50931,-25.37149 8.45863,-43.46287 18.20508,-55.35938 3.52174,-4.29861 11.94626,-9.45145 22.32422,-13.6543 8.47237,-3.43112 11.77623,-5.42722 16.04297,-9.69336 8.71694,-8.71571 9.90506,-17.68047 3.86133,-29.12109 -4.07123,-7.70673 -12.06933,-14.02422 -23.4043,-18.48828 -26.56511,-10.46217 -79.18062,-17.27499 -120.25,-15.56836 -13.89514,0.57741 -15.82193,0.92666 -19.14453,3.46094 -1.81771,1.38643 -3.10547,3.82991 -3.10547,5.89062 0,3.70398 9.42035,9.78029 24.43164,15.75781 8.61473,3.43041 17.59918,5.68788 18.27539,4.59375 0.1627,-0.26325 -1.83695,-1.61712 -4.44336,-3.00976 -8.99162,-4.80435 -22.76367,-14.2219 -22.76367,-15.56641 0,-0.7278 2.32384,-0.97933 9.14453,-0.98633 16.80758,-0.0166 46.94783,2.64233 65.60547,5.78711 33.87372,5.70951 55.10595,12.53993 62.49999,19.72266 3.04822,2.96111 3.82209,6.37908 4.17439,9.53824 0.42436,3.80544 0.80873,7.42576 -1.55329,10.15707 -2.50408,2.39874 -7.13536,4.91536 -14.26758,7.75196 -20.08687,7.98888 -28.63967,16.48663 -36.10547,35.875 -5.86187,15.22307 -9.67196,43.26481 -9.66796,71.16211 0.002,15.79975 0.74201,24.5409 3.44531,40.67969 5.1463,30.72356 15.06476,60.01191 29.27148,86.43359 19.89835,37.00695 43.89707,63.8269 74.95313,83.89258 v 0.40625 c 20.29598,12.21862 31.23285,18.87657 48.01967,24.6341 3.99233,1.38034 13.32287,3.47017 15.73057,3.95779 4.30803,0.87251 13.13421,0.91282 206.87891,0.95312 162.6624,0.0339 196.2941,0.11562 207.9863,-0.87109 13.397,-1.13058 30.7883,-8.68169 41.1661,-14.86328 7.4635,-4.44569 30.6469,-19.94218 37.4961,-25.06446 36.4216,-27.23846 62.2904,-61.55294 80.6367,-106.9668 11.9698,-29.62949 18.4616,-60.38064 19.4121,-91.9414 0.8919,-29.61338 -4.4365,-61.01341 -13.5762,-80 -1.7158,-3.56438 -3.4355,-6.60473 -5.3535,-9.28711 -5.754,-8.04716 -13.2982,-12.87398 -27.916,-18.96485 -9.5987,-3.99954 -14.6398,-6.76676 -17.0098,-9.33789 l -1.8633,-6.08984 c 0.3892,-6.48787 2.8314,-9.96399 10.4805,-14.91211 25.7089,-16.63101 83.0169,-21.12582 113,-22.34375 4.6185,-0.13358 9.2252,-0.29152 13.9121,-0.29492 8.5923,-0.006 9.5,0.16447 9.5,1.79101 0,1.44018 -5.0986,5.38842 -12.7597,9.88086 -11.1743,6.55254 -12.7403,7.52465 -12.7403,7.9082 0,1.37572 10.4462,-0.69951 17,-3.37695 5.7665,-2.3558 18.1571,-8.59571 21.5,-10.82812 3.1688,-2.11622 5.5376,-5.30721 5.4766,-7.375 -0.013,-0.42298 -1.0813,-1.30683 -2.375,-1.96289 -1.2937,-0.65608 -3.6036,-1.84885 -5.1328,-2.6504 -47.8758,-0.82276 -100.6664,-6.22587 -145.6058,14.494 z"
         transform="scale(0.26458333)"
         sodipodi:nodetypes="ssscsccssssssssccsssssssssssssssssscssscsscsscccssssssssssccscsssssscscs" /><path
         style="display:inline;fill:#ffffff;fill-opacity:1;fill-rule:evenodd;stroke:#428f29;stroke-width:3.57817e-05;stroke-miterlimit:0;paint-order:markers fill stroke"
         d="m 503.04887,173.18973 c -25.01592,-28.66964 -57.92084,-43.18468 -94.78724,-50.79216 -7.85602,-1.62111 -15.70259,-2.3126 -23.65741,-3.45187 -1.06031,-0.15186 -2.68605,-0.43402 -3.72827,-0.61189 -0.54872,-0.0936 -0.77468,-0.0792 -1.26941,-0.34562 -2.81406,-2.0337 6.28416,-1.8921 7.58529,-1.88932 1.57649,0.0173 3.31616,0.16559 4.89263,0.27911 12.878,0.92732 25.69696,3.85071 38.02156,7.33319 20.28188,5.73093 39.91568,15.10309 56.08318,28.83193 8.71556,7.53635 16.56308,15.63959 22.52019,26.03969 1.27795,2.23108 -3.73535,-3.68835 -5.66052,-5.39303 z"
         id="path31"
         sodipodi:nodetypes="ssssssssssss" /><path
         style="display:inline;fill:#ffffff;fill-opacity:1;fill-rule:evenodd;stroke:#428f29;stroke-width:5.06029e-05;stroke-miterlimit:0;paint-order:markers fill stroke"
         d="m 30.459687,181.88669 c 3.217735,-5.90674 6.753455,-11.31035 11.549501,-16.63002 14.143841,-15.68804 23.983072,-21.76916 37.639339,-28.93138 20.823423,-10.68274 43.751283,-17.14437 66.919563,-20.17739 2.20564,-0.18347 4.44812,-0.36093 6.76516,-0.42874 0.75608,-0.0221 1.53917,0.009 2.27131,0.0127 2.0085,0.0103 3.33104,0.16471 4.6125,0.58764 l 0.28589,0.10684 0.1831,0.0957 0.11686,0.14908 0.0375,0.19824 -9.2e-4,0.36644 -0.11174,0.29282 -0.14419,0.18526 -0.20911,0.14638 -0.36067,0.13366 c -1.30745,0.45506 -3.37419,0.52151 -5.07436,0.74302 -7.05078,0.77895 -48.5596,4.35769 -86.14105,28.04373 -11.941003,7.69638 -22.235093,17.27171 -31.166857,28.2938 -1.747906,1.98425 -5.459068,5.79007 -7.172036,6.81222 z"
         id="path32"
         sodipodi:nodetypes="csccssccccccccccccccc" /></g></g><g
     inkscape:groupmode="layer"
     id="layer8"
     inkscape:label="Battery"
     style="display:inline"><g
       inkscape:groupmode="layer"
       id="layer5"
       inkscape:label="Battery_Background"
       style="display:inline"
       sodipodi:insensitive="true"><path
         id="path152"
         style="display:inline;fill:#ffffff"
         d="m 277.58461,151.33908 c -10.32246,-0.0374 -26.77267,0.1914 -28.40344,0.43512 -8.19823,1.22517 -2.37318,16.02466 -7.31066,16.20934 -7.35445,0.52443 -15.2155,-1.11892 -22.09426,1.95079 -8.49339,4.19606 -9.41769,13.99573 -8.79895,22.34799 -0.11144,17.29873 0.11173,34.65162 0.16847,51.88262 0.0144,22.86345 -0.3629,45.62217 -0.41755,68.38704 -0.51643,9.57649 0.0186,19.56387 -0.0909,29.29951 0.25969,6.95296 -0.3746,14.06395 0.44339,20.91861 2.52466,9.62554 12.86616,14.88274 22.32938,13.76816 25.43139,0.014 50.88064,0.37788 76.30232,-0.22118 8.30012,-1.81148 16.0115,-9.43359 14.59601,-18.43815 0.23664,-15.97731 -0.0454,-32.62351 0.30024,-48.2477 -0.0792,-0.5718 0.14458,-1.70843 0.0682,-2.25154 -0.67378,-40.86833 0.0169,-82.00828 -0.41289,-122.96769 0.13696,-5.50451 -2.84724,-10.21596 -7.14479,-13.18886 -10.59773,-7.33128 -24.08126,-0.009 -26.04595,-5.07204 -0.0357,-5.45874 0.45758,-12.71206 -5.98413,-14.67662 -1.3036,-0.0808 -4.06382,-0.12293 -7.50445,-0.1354 z"
         sodipodi:insensitive="true" /><path
         style="display:inline;fill:#000000"
         d="m 241.87029,167.9833 c -7.35474,0.52443 -15.21499,-1.11868 -22.09404,1.95103 -8.49368,4.19606 -9.41766,13.99536 -8.79892,22.34791 -0.11144,17.29931 0.11173,34.65119 0.16847,51.88277 0.0144,22.86403 -0.36291,45.62143 -0.41756,68.38688 -0.51643,9.57678 0.0184,19.56378 -0.0911,29.29942 0.25969,6.95325 -0.37445,14.06388 0.44354,20.91883 1.64549,6.27289 6.61673,10.90636 12.51122,12.86603 6.29491,2.0928 12.12445,0.90039 18.20111,0.91776 22.64045,0.0668 45.29001,0.2963 67.91937,-0.23694 8.30041,-1.81148 16.0117,-9.43331 14.59621,-18.43816 0.23664,-15.97789 -0.0454,-32.62299 0.3002,-48.24776 -0.0792,-0.5718 0.14419,-1.70823 0.0681,-2.25134 -0.67378,-40.86949 0.0169,-82.00717 -0.41286,-122.96774 0.13696,-5.5048 -2.84718,-10.2161 -7.14473,-13.189 -10.59831,-7.33157 -24.0813,-0.009 -26.04599,-5.07168 -0.0357,-5.45874 0.45799,-12.71192 -5.98401,-14.67677 -5.21438,-0.32338 -33.73351,-0.0254 -35.90787,0.29956 -8.19852,1.22517 -2.37337,16.02423 -7.31114,16.2092 z m 46.65239,-0.83849 c -0.0367,1.53825 0.0233,3.34467 0.17705,3.47901 0.29675,0.25951 0.54711,0.15872 1.08567,0.17574 7.57418,0.29119 15.24729,-0.59192 22.73043,0.56362 9.26933,3.20521 9.18339,13.80994 8.68681,21.88267 -0.37386,2.68328 0.72507,6.79175 -0.5047,8.64678 -35.64947,0.0899 -71.30346,0.17127 -106.95386,-0.0238 0.29022,-7.42927 -0.46178,-15.00522 0.76432,-22.31492 3.1941,-9.32095 13.07234,-9.11575 21.16042,-8.64733 3.91381,0.33652 9.25569,-0.38486 9.94523,-0.92204 2.61313,-2.03574 1.18504,-7.43872 2.2385,-11.27231 0.58072,-2.96585 1.3545,-3.44885 4.10221,-4.24342 l 31.33553,-0.29658 c 1.41248,0.45285 2.45613,1.09814 3.2249,1.89225 2.52203,2.60519 2.00747,6.81206 2.00747,11.08034 z m -30.22475,37.5967 c 20.92448,-0.0556 41.84869,0.008 62.77239,0.17729 -0.0126,46.10716 0.0721,92.21497 -0.26458,138.32127 -33.11698,0.0882 -66.23406,-0.0391 -99.35104,-0.0781 V 204.78644 l 36.84323,-0.045 z m -44.51615,0.045 c 4.31866,-1.2485 2.13324,4.00708 2.64584,6.56464 v 131.81244 c -4.31866,1.2485 -2.13324,-4.00708 -2.64584,-6.56464 z m 0.13074,141.15676 h 107.15625 c 0.15833,8.06311 0.2601,18.33618 -5.15618,23.52093 -2.73526,2.38469 -6.64182,4.0194 -11.53519,4.11932 -25.74249,-0.0683 -51.48831,0.10982 -77.22795,-0.27342 -5.79361,-1.83054 -13.66051,-6.49459 -13.23692,-13.4875 0,-4.62644 0,-9.25289 -1e-5,-13.87933 z"
         id="path1169"
         sodipodi:nodetypes="cccccccsscccccsccsccscccccccssccsscccccccccccccccccccc" /></g><g
       inkscape:groupmode="layer"
       id="layer14"
       inkscape:label="Battery_Infill"
       style="display:inline"><path
         style="display:inline;fill:#5b5b5c"
         d="m 218.56292,368.74228 c -1.27871,-1.48139 -1.3742,-2.50422 -1.77766,-4.60193 -0.664,-6.07103 -0.24096,-12.22319 -0.35753,-18.33089 h 10.05417 v 21.17211 c 26.62575,-0.0555 53.25306,0.10967 79.87756,-0.14037 3.63858,0.0167 7.85353,-0.50116 9.36652,-4.64483 1.76971,-5.91768 1.10273,-16.19847 1.22938,-16.29285 3.85867,-0.0284 1.07919,-0.0528 4.25645,-0.0411 -0.002,0.0907 -0.0129,0.80473 -0.0145,0.8955 -0.0954,5.24479 0.33576,10.55037 -0.48515,15.73612 -0.74945,2.36028 -2.44162,5.25701 -4.17373,6.94983 -3.96175,3.87192 -9.7368,4.54133 -13.25125,4.54245 -35.25835,0.0106 -19.33668,0.13238 -74.81375,-0.36804 -2.5853,-0.0233 -7.08367,-1.60111 -9.91051,-4.876 z"
         id="path93-3"
         sodipodi:nodetypes="sccccccccscssss" /><path
         style="display:inline;fill:#999897"
         d="m 226.47874,356.40066 0.003,-10.59124 37.1708,0.008 h 37.17395 v 10.58333 l -10e-4,10.50037 -37.1729,0.083 h -37.17396 z"
         id="path403-1"
         sodipodi:nodetypes="ccccccccc" /><path
         style="display:inline;fill:#999897"
         d="m 303.07615,366.50747 c 0.45417,-0.35645 2.06609,-0.85063 3.55154,-2.10832 1.07846,-0.91311 2.19292,-2.08136 2.59312,-2.84002 0.86079,-1.63182 0.96041,-9.65711 0.85795,-15.65958 2.40163,0.0264 4.59701,0.04 6.91374,0.003 l 10e-4,1.1736 c 0.001,1.51729 -8.2e-4,9.9307 -0.27451,12.53131 -0.27442,2.60734 -0.82619,3.87627 -2.30702,5.30552 -1.69741,1.63829 -2.60177,1.88838 -7.26615,2.00985 -2.17073,0.0565 -4.09871,-0.0435 -4.2176,-0.0392 -0.12346,0.004 -0.17983,-0.1189 0.14793,-0.37614 z"
         id="path404-3"
         sodipodi:nodetypes="sssccssssss" /><path
         id="path306-6"
         style="display:inline;fill:#373637"
         d="m 226.74637,204.78647 0.0212,138.38609 74.06408,0.0996 -0.002,-138.48569 -30.24135,-0.087 z"
         sodipodi:nodetypes="cccccc" /><path
         style="display:inline;fill:#1a191a"
         d="m 221.22859,204.77447 5.51987,-0.0186 0.0212,138.41874 -5.4121,2.5e-4 z"
         id="path971-9"
         sodipodi:nodetypes="ccccc" /><path
         style="display:inline;fill:#a8a8a9"
         d="m 310.06999,193.34327 c -0.18595,-4.00414 0.42333,-8.13739 -0.72378,-12.02883 -1.22935,-3.02851 -4.7599,-3.87448 -7.71818,-3.63193 -23.01907,-0.25663 -46.06752,-0.16244 -69.08771,-0.20145 -0.013,-0.88138 -0.0266,-2.56314 -0.0192,-2.58674 l 17.30204,-0.0591 v -3.96875 h 27.51667 v 3.9503 c 11.33298,0.0503 22.60801,0.15389 33.94099,0.20416 3.27344,1.1711 6.29532,4.15386 5.88894,7.88649 0.0999,6.32222 0.0445,12.64583 0.0644,18.96871 h -7.14375 c -0.007,-2.84429 -0.0136,-5.68857 -0.0204,-8.53286 z"
         id="path496-1"
         sodipodi:nodetypes="sccccccccccccss" /><path
         style="display:inline;fill:#a8a8a9"
         d="m 227.29577,193.16548 c 0.18209,-5.65361 -0.26794,-8.86432 1.68374,-11.46383 1.13851,-0.83825 2.48375,-1.04633 3.90324,-1.03802 22.51082,0.26851 45.1366,0.0707 67.68248,0.0458 0.0678,7.00091 -0.1692,14.00893 0.23335,21.00344 -24.41396,0.33582 -48.84013,0.16322 -73.25835,0.16322 z"
         id="path495-2"
         sodipodi:nodetypes="ccscccc" /><path
         style="display:inline;fill:#5b5b5c"
         d="m 216.44405,193.89159 c 0.23725,-4.95969 -0.82643,-10.62441 2.5786,-14.78914 3.10623,-4.78716 8.54159,-4.34379 13.54424,-4.21186 0.0368,0.0306 0.0279,1.89652 0.0225,2.62184 -0.94792,0.89448 -1.16148,2.21027 -1.8679,3.30683 -0.23291,0.33937 -1.24342,0.38264 -1.5852,0.82737 -0.88887,1.1566 -1.31106,2.38325 -1.47662,3.80465 -0.63107,6.29144 0.008,14.98843 -0.13152,16.41802 -3.69074,0.059 -7.39235,0.026 -11.08631,0.026 5.8e-4,-2.66785 7.6e-4,-5.33618 0.002,-8.00373 z"
         id="path177-5"
         sodipodi:nodetypes="ccssssscccc" /><path
         style="display:inline;fill:#5b5b5c"
         d="m 249.76523,158.48445 h 27.51667 v 12.43541 h -27.51667 z"
         id="path194-2"
         sodipodi:nodetypes="ccccc" /><path
         style="display:inline;fill:#5b5b5c"
         d="m 281.77982,158.48445 h 6.01993 c 0.17946,0.0119 0.18961,0.0247 0.19961,0.0556 0.46805,1.44558 0.5662,3.16274 0.60242,4.45681 0.0425,1.86955 0.0986,3.73887 0.2356,5.6042 0.0428,0.73215 0.0891,1.46409 0.13848,2.19583 -2.3987,0.041 -4.79741,0.082 -7.19611,0.12301 2e-5,-4.14514 5e-5,-8.29027 7e-5,-12.43541 z"
         id="path195-2"
         sodipodi:nodetypes="ccsccccc" /></g><g
       inkscape:groupmode="layer"
       id="layer13"
       inkscape:label="Battery_Stripes"
       style="display:inline"
       sodipodi:insensitive="true"><path
         id="path307-4"
         style="display:inline;fill:#373637"
         d="m 310.13899,320.32053 c 0.0297,7.60535 -0.11793,15.36425 -0.0279,22.94609 3.55433,5.8e-4 7.35166,0.009 10.90562,0.009 0.004,-46.08679 0.28792,-92.40599 0.16704,-138.46269 -1.20214,-0.002 -10.58553,0.0284 -10.83616,0.0284 -0.42643,38.49159 -0.23732,76.98619 -0.2086,115.47919 z"
         sodipodi:nodetypes="ccccsc" /><path
         style="display:inline;fill:#292728"
         d="m 315.94946,204.82419 5.22993,-0.0114 c 0.33158,57.70127 0.0209,-8.79744 -0.10806,138.47243 l -5.11837,-0.008 c 0.0754,-66.21457 -0.21985,-70.98856 -0.004,-138.45276 z"
         id="path559-3"
         sodipodi:nodetypes="cccccc" /><path
         style="display:inline;fill:#5b5b5c"
         d="m 310.6194,274.10738 0.0683,-69.26783 2.05179,-0.008 -0.003,69.27547 v 69.15491 l -2.11666,-6.6e-4 z"
         id="path102-6"
         sodipodi:nodetypes="ccccccc" /></g><g
       inkscape:groupmode="layer"
       id="layer9"
       inkscape:label="Battery_Inner_Bat"
       style="display:inline"
       sodipodi:insensitive="true"><path
         id="path154"
         style="display:inline;fill:#000000"
         d="m 284.74386,237.32815 c 7.2e-4,2.65095 1.75352,5.87207 1.86759,8.84029 1.80037,9.35176 -9.17978,15.81482 -11.52023,14.0255 -2.66954,-2.04091 -0.45353,-11.64256 -3.86281,-8.81807 -0.99,2.4881 -7.21711,2.5463 -7.19543,-0.971 -1.75123,-0.50411 -1.83937,1.48164 -1.84537,3.49384 0.0169,1.66228 -0.20251,3.28702 -0.37672,4.93459 -0.0865,0.81854 -0.15553,1.69782 -0.57774,2.1549 -0.91579,0.99145 -10.69865,-2.41047 -12.65401,-7.6171 -2.02839,-5.06837 -0.17227,-10.4582 1.25677,-15.40371 -1.82567,-1.06574 -4.89288,2.23128 -6.74015,3.63492 -14.81232,13.15995 -13.02622,30.16952 -2.78898,45.01895 2.96269,-0.99053 6.73398,-2.82878 10.18336,-1.37045 6.6913,2.54895 11.02258,8.841 14.43788,14.8301 1.17576,2.76476 3.49049,7.15742 4.87877,2.00763 3.15249,-6.12541 6.72202,-12.93053 13.3289,-15.85847 3.24353,-2.03767 6.78196,-0.7105 9.88208,0.0527 18.41357,-19.28054 6.13166,-41.92224 -7.20628,-48.65336 l -0.7276,-0.25063 v -5.1e-4 z" /><path
         style="display:inline;fill:#fdaa27"
         d="m 267.06559,296.42597 c -1.23984,-2.12392 -5.07537,-6.65172 -7.8837,-9.30659 -3.54156,-3.34804 -6.15696,-4.74398 -9.97154,-5.32221 -1.69935,-0.25759 -2.3101,-0.23625 -3.96728,0.1386 -3.42041,0.77369 -3.30751,0.81203 -5.01708,-1.70354 -1.61353,-2.37425 -3.48089,-5.96717 -4.21413,-8.10829 -1.78342,-5.20766 -1.24019,-12.54993 1.29781,-17.54097 1.24878,-2.45574 3.4106,-5.33582 5.69076,-7.58146 l 2.13601,-2.10369 0.15166,3.4266 c 0.22172,5.00983 1.07497,6.84552 4.31363,9.28038 3.17067,2.38375 9.78083,5.12644 12.35526,5.12644 1.66209,0 1.98564,-0.48338 2.21373,-3.3073 0.094,-1.16416 0.23452,-2.44282 0.31219,-2.84147 l 0.14122,-0.7248 0.87073,0.92324 c 0.77619,0.823 1.01908,0.92324 2.23705,0.92324 1.64697,0 3.04607,-0.53829 3.47314,-1.33626 0.50083,-0.93582 0.70189,-0.2487 1.06635,3.64418 0.28486,3.04268 0.39314,3.53333 0.75404,3.41675 0.23178,-0.0749 1.38608,-0.486 2.56511,-0.91363 10.54255,-3.82373 14.2216,-7.826 13.78632,-14.99749 -0.0795,-1.30969 -0.23465,-2.61105 -0.3448,-2.89191 -0.18803,-0.47947 -0.1644,-0.48554 0.38695,-0.0994 1.9067,1.33551 6.32634,7.50731 7.71814,10.77799 1.44283,3.39059 1.92871,5.83639 1.92221,9.67577 -0.005,2.94729 -0.10608,3.77239 -0.70626,5.76483 -0.9919,3.29282 -3.3767,7.74732 -5.60589,10.47107 -0.19484,0.23807 -0.56901,0.70067 -0.83148,1.028 -0.46357,0.57815 -0.51434,0.58382 -1.77604,0.19844 -3.67055,-1.12114 -8.98717,0.29517 -12.86283,3.42656 -2.67942,2.16487 -7.13713,8.03906 -8.4827,11.17814 -0.26833,0.62599 -0.53595,1.13817 -0.5947,1.13817 -0.0588,0 -0.569,-0.79174 -1.13388,-1.75943 z m 1.95616,-10.89369 c 1.14906,-2.73537 2.45056,-4.66633 4.66253,-6.91751 2.39522,-2.43769 3.77012,-2.85161 4.90997,-1.47819 0.62712,0.75564 1.28442,0.46471 2.20901,-0.97774 1.0477,-1.63449 1.32666,-1.88093 2.58896,-2.28706 0.77288,-0.24867 1.09284,-0.23078 1.71979,0.0962 1.46799,0.76554 1.49317,0.73098 3.22334,-4.4237 0.89141,-2.65576 1.8156,-5.84068 2.05378,-7.07761 0.43227,-2.24495 0.82426,-7.14375 0.57163,-7.14375 -0.0734,0 -0.43498,0.50602 -0.80358,1.12448 -1.30038,2.18193 -3.96926,4.26488 -7.85582,6.13115 -2.8572,1.37198 -6.96072,2.53972 -9.18925,2.615 -1.50554,0.0508 -1.51793,0.0451 -1.59417,-0.7425 -0.0423,-0.43656 -0.21013,-1.13225 -0.37303,-1.54597 -0.2671,-0.67837 -0.37645,-0.73164 -1.11378,-0.54261 -1.08362,0.2778 -3.54668,0.28041 -4.45165,0.005 -0.64059,-0.19516 -0.75751,-0.13379 -1.01896,0.53483 -0.16244,0.41541 -0.3585,1.20177 -0.43569,1.74747 -0.0832,0.58825 -0.28603,0.99219 -0.49818,0.99219 -0.1968,0 -1.81823,-0.30713 -3.60318,-0.68251 -3.21387,-0.67589 -5.94516,-1.60087 -7.47869,-2.53274 -0.43657,-0.26528 -1.07065,-0.60335 -1.40908,-0.75127 -1.90979,-0.83469 -5.65517,-3.92499 -6.67328,-5.5061 -0.40312,-0.62603 -0.80167,-1.02704 -0.88567,-0.89112 -0.28911,0.4678 0.36749,7.05458 0.92514,9.28049 0.30719,1.2262 1.08164,3.53109 1.72102,5.12199 0.63937,1.59091 1.16249,3.11999 1.16249,3.39797 0,0.45524 0.14051,0.4889 1.41533,0.33907 1.25492,-0.14749 1.47983,-0.0971 1.98438,0.44445 0.31297,0.33594 0.56904,0.94928 0.56904,1.36297 0,0.95819 0.6283,1.21196 1.59167,0.64288 0.40642,-0.24007 1.07197,-0.43649 1.47901,-0.43649 1.07665,0 3.25378,1.43628 4.44713,2.93384 1.15493,1.44933 1.43693,1.54663 2.16166,0.74581 1.3235,-1.46245 2.26685,-1.08985 4.42889,1.7493 1.85837,2.44038 2.29581,3.43315 2.29581,5.21032 0,0.84236 0.0893,1.53 0.19844,1.5281 0.10914,-0.002 0.58839,-0.93175 1.06499,-2.06633 z"
         id="path10" /></g></g></svg>
